# xmcd
# 
# Track frame offsets:
#     150
#     17516
#     33908
#     53537
#     69546
#     83757
#     98960
#     115810
# 
# Disc length: 1850
# 
# Revision: 0
# Processed by: cddbd v1.5.2PL0 Copyright (c) Steve Scherf et al.
# Submitted via: fre:ac v1.0.17
# 
DISCID=57073808
DTITLE=Tater Diggers - Tater Diggers
DYEAR=2010
DGENRE=Country
TTITLE0=Sail Away Ladies
TTITLE1=Jordan Am A Hard Road To Travel
TTITLE2=West Indies Blues
TTITLE3=Hold The Woodpile Down
TTITLE4=Fall On My Knees
TTITLE5=Johnny Come Down To Hilo
TTITLE6=That Old Road
TTITLE7=Sing Fare Ye Well
EXTD=
EXTT0=
EXTT1=
EXTT2=
EXTT3=
EXTT4=
EXTT5=
EXTT6=
EXTT7=
PLAYORDER=
